<svg version="1.1" id="Layer_1" xmlns="http://www.w3.org/2000/svg" xmlns:xlink="http://www.w3.org/1999/xlink" x="0" y="0" width="111" height="40" viewBox="0 0 111 40" xml:space="preserve" enable-background="new 0 0 111 40"><g><path d="M81.6,33.8c-1.6,0.1-3.2,0.1-4.8,0.1c-2.2,0-4.4,0.1-6.6-0.1c-0.6-0.1-1.6-1.1-1.6-1.6c0.3-5,0.6-10.1,1.2-15 c0.4-3.9-0.7-5.5-4.5-5.3c-0.2-1.2-0.3-2.4-0.8-3.5c-0.8-1.9-2.2-2.2-3.9-1.1c-1.6,1-1.7,2.7-1.9,4.3c-0.4,3.7-0.9,7.5-1.7,11.1 c-0.7,2.9-1.8,5.8-3,8.6c-0.7,1.6-1.8,1.5-2.8,0c-0.3-0.6-0.6-1.1-0.8-1.7c-1-2.9-1-5.9-0.8-9c0.1-1.3-0.7-2.9-1.5-4 c-0.2-0.4-1.9-0.3-2.7,0c-1.5,0.7-2.4,1.8-2,3.7c0.3,1.6,0.2,3.2,0.2,5c-2.1-2.9-4-5.6-6.2-8.2c-1.6-1.8-3.5-2.7-5.9-2 c-0.9,0.2-1.7,0.6-2.9,1l-0.5,0.5c0-0.2,0-0.3,0-0.5c0-1.3-1.4-5.1-1.6-6.2C24.8,2.5,14.1-2.1,8,1C6.2,2,4.2,3.1,2.5,4.2 C2,4.6,1.6,5.4,1.6,6c-0.2,2.9-0.5,5.9-0.8,9.1c-0.1,2.5-0.7,5.2-0.2,7.6c0.8,4.6,2.1,9.2,3.2,13.7c0.5,2,2.3,3,4.1,2.6 c1.5-0.3,2.4-2,2.2-3.9c-0.1-1.6-0.6-3.1-0.7-4.7c-0.3-3.8-0.2-3.8,3.5-4.4c0.3-0.1,0.7-0.1,1-0.2c2.8-0.9,3.6-0.4,8.4-2.7 c0,0.6,0.1,1.3,0,2.1c-0.2,3-0.6,5.9-0.7,8.8c-0.1,2.1,1.2,3.7,3,3.8c1.9,0.1,3-1.1,3.4-3.5c0-0.6,0.1-1,0.1-1.5 c0.1-1.3,0.8-2,2.1-1.8c4.1,0.6,8.2,1.2,11.4,4c0.7,0.4,1.9,0.7,2.6,0.4c1.7-0.7,2.8,0,3.8,1.2c1.2,1.5,2.6,2.1,4.6,1.9 c3.1-0.3,4.8-2.4,6.2-4.7c2.5-4.3,2.9-9,3.8-13.7c0.2-0.9,0.6-1.9,0.8-2.9c0.2,0.1,0.4,0.1,0.7,0.1c0,1.1,0.1,2.1,0,3.2 c-0.3,4.5-0.8,9-1,13.4c-0.2,3.4,1.5,5.6,4.8,5.7c4.7,0.2,9.4-0.2,14.1-0.4c1.8-0.1,2.4-1.5,2.2-3C84.1,35,83.5,33.8,81.6,33.8z M19.5,17.2c-2.5,2.2-5.5,3-8.7,3.2c-1.6,0.1-2.4-0.6-2.5-2.3c-0.1-2.6-0.5-5.2-0.5-7.8c0-3.5,1.3-4.5,4.7-4.1 c3,0.3,5.5,1.7,7.1,3.1C22.2,11.5,22.1,15,19.5,17.2z M36.2,26.2c-1.5-0.2-2.8-0.3-4.1-0.6c-0.6-0.1-1.6-0.7-1.6-1 c0.1-0.9,0.6-1.8,1.1-2.5c0.3-0.3,1.6-0.4,1.9-0.1c1.2,1,2.1,2.2,3.2,3.5C36.6,25.7,36.5,25.9,36.2,26.2z"/><path d="M110.5,31.4c-2.1-5.8-4.1-11.5-6.5-17.3c-1.6-3.8-3.6-7.5-5.6-11.1c-1-1.8-2.2-1.7-3.5,0c-0.2,0.3-0.4,0.8-0.7,1.1 C93.1,6,92,7.8,90.7,9.9c-0.6-0.9-0.7-1.3-1-1.7c-0.9-1.6-1.9-1.8-3.4-0.7c-1,0.8-1.6,1.8-1.1,3.1c1.2,3.6,0.3,6.5-2.2,9.2 c-1.3,1.5-2.7,2.9-3.9,4.5c-0.6,0.8-1.1,2-1,2.9c0.2,1.2,1.6,1.6,2.8,1.5c1.8-0.2,3.6-0.4,5.4-0.8c1.2-0.2,2-0.2,2,1.3 c0,2.2,0.1,4.4,0.1,6.5c0.1,2,1,3.1,2.7,3.1c1.5-0.1,2.7-1.6,2.4-3.4c-0.9-4.8,1.9-8.1,5-10.9c3.2-3,4.4-2.5,5.3,1.9 c0.3,1.9,0.4,3.9,0.7,5.9c0.2,1.8,2.1,3,3.7,2.7C109.7,34.9,111.1,32.9,110.5,31.4z M99.9,17.4c-2.2,1.2-4.5,2.5-6.7,3.6 c-1.1,0.7-1.8,0.1-1.9-1c-0.1-1.1-0.2-2.1-0.3-3.2c0.2-0.4,0.2-0.9,0.4-1.1c1.5-2,2.8-3.9,4.3-5.8c0.8-1.1,1.7-1,2.1,0.2 c0.9,2,1.8,4.1,2.6,6.3C100.4,16.6,100.1,17.3,99.9,17.4z"/></g></svg>