<svg version="1.1" id="Layer_1" xmlns="http://www.w3.org/2000/svg" xmlns:xlink="http://www.w3.org/1999/xlink" x="0" y="0" width="600" height="420" viewBox="0 0 600 420" xml:space="preserve" enable-background="new 0 0 600 420"><path d="M426.1,69.1c-8.2-17.4-3.1-22.5-3.1-22.5c13.3-17.4,34.7-28.6,44.9-10.2c20.4,36.8,40.8,74.5,57.2,113.3	c24.5,59.2,44.9,117.4,66.4,176.7c6.1,15.3-8.2,35.7-23.5,36.8c-16.3,3.1-35.7-9.2-37.8-27.6c-3.1-20.4-4.1-40.8-7.1-60.2	c-9.2-44.9-21.4-50-54.1-19.4c-31.7,28.6-60.2,62.3-51.1,111.3c3.1,18.4-9.2,33.7-24.5,34.7c-17.4,0-26.5-11.2-27.6-31.7	c0-21.4-1-43.9-1-66.4c0-15.3-8.2-15.3-20.4-13.3c-18.4,4.1-36.8,6.1-55.1,8.2c-12.3,1-26.5-3.1-28.6-15.3	c-1-9.2,4.1-21.4,10.2-29.6c12.3-16.3,26.5-30.6,39.8-46c25.5-27.6,34.7-57.2,22.5-93.9c-5.1-13.3,1-23.5,11.2-31.7	c15.3-11.2,25.5-9.2,34.7,7.1c2,2,10.2,20.4,10.2,38.8s2,32.7,2,49c0,14.3,4.1,35.7,5.1,36.8c2,8.2,8.2,10.2,18.4,6.1	c0,0,20.4-5.1,30.6-15.3s13.3-14.3,16.3-30.6c1.4-8,1.1-15.9,0.2-22.2c-1-7.4-9.8-28.3-13-35C438.8,95.8,429.2,76.8,426.1,69.1z M124.8,73.5c-35-3-47,7-47,41c0,26,3,52,5,78c1,17,9,24,25,23c32-2,62-10,87-32s26-58,1-79C179.8,90.5,154.8,76.5,124.8,73.5z M224.8,241.5c-51,25-58,20-86,29c-3,1-7,1-10,2c-37,6-38,6-35,44c1,16,6,31,7,47c2,20-7,36-22,39c-18,3-37-7-41-26	c-12-45-24-91-32-137c-5-24,1-51,2-76c3-33,6-63,8-92c0-7,5-15,9-18c17-11,37-22,55-32c61-31,168,15,186,90c2,12,16,49,16,62	c0,13-3,26-12,35C260.8,218.5,245.8,230.5,224.8,241.5z"/></svg>