<?xml version="1.0" encoding="utf-8"?>
<!-- Generator: Adobe Illustrator 25.0.1, SVG Export Plug-In . SVG Version: 6.00 Build 0)  -->
<svg version="1.1" id="Layer_1" xmlns="http://www.w3.org/2000/svg" xmlns:xlink="http://www.w3.org/1999/xlink" x="0px" y="0px"
	 width="240px" height="240px" viewBox="0 0 240 240" style="enable-background:new 0 0 240 240;" xml:space="preserve">
<rect style="fill:#E9ECEF;" width="240" height="240"/>
<g>
	<path d="M66.8,41.6h11.6c3.1,0,5.4,0.9,7,2.4c1.7,1.5,2.6,3.7,2.6,6.3c0,4.9-3.4,8.4-8.7,8.4h-6v8.6h-6.5V41.6z M78,53.7
		c2.3,0,3.6-1.4,3.6-3.4s-1.3-3.3-3.6-3.3h-4.7v6.7H78z"/>
	<path d="M89.9,41.6h5.9v25.7h-5.9V41.6z"/>
	<path d="M97.9,58c0-5.5,3.8-9.7,9.5-9.7c2.6,0,4.7,0.9,6.3,2.3c2.2,2,3.3,5.2,3.2,9h-13.2c0.4,2.5,1.7,4,4.1,4
		c1.5,0,2.6-0.7,3.1-1.8h5.7c-0.4,1.7-1.5,3.2-3.1,4.4c-1.5,1.1-3.4,1.7-5.8,1.7C101.6,67.8,97.9,63.6,97.9,58z M111,56.1
		c-0.2-2.2-1.6-3.6-3.5-3.6c-2.2,0-3.4,1.4-3.8,3.6H111z"/>
	<path d="M118,62.2c0-4.1,3.2-5.3,7.1-5.8c3.5-0.4,4.7-0.8,4.7-2.1c0-1.2-0.8-2-2.5-2c-1.9,0-2.8,0.8-3,2.4h-5.4
		c0.1-3.4,2.8-6.3,8.3-6.3c2.8,0,4.6,0.5,6,1.5c1.6,1.2,2.3,3,2.3,5.3v9.3c0,1.5,0.1,2.3,0.6,2.6v0.3h-5.7c-0.3-0.4-0.5-1.1-0.6-2.1
		h-0.1c-1.1,1.5-2.7,2.5-5.5,2.5C120.6,67.8,118,65.8,118,62.2z M129.9,60.7v-2.2c-0.8,0.4-1.8,0.7-3,1c-2.3,0.5-3.2,1.1-3.2,2.5
		c0,1.5,1.1,2.1,2.5,2.1C128.4,64,129.9,62.7,129.9,60.7z"/>
	<path d="M137.2,61.3h5.5c0.2,1.8,1.4,2.7,3.4,2.7c1.8,0,2.9-0.6,2.9-1.8c0-1.7-2.2-1.8-4.7-2.3c-3.2-0.5-6.6-1.4-6.6-5.7
		c0-3.9,3.6-5.9,8-5.9c5.2,0,8,2.3,8.3,5.9h-5.4c-0.2-1.7-1.3-2.2-3-2.2c-1.4,0-2.6,0.5-2.6,1.7c0,1.3,2.1,1.5,4.4,1.9
		c3.2,0.5,7.1,1.4,7.1,6.1c0,4-3.6,6.1-8.4,6.1C140.8,67.9,137.4,65.4,137.2,61.3z"/>
	<path d="M155.9,58c0-5.5,3.8-9.7,9.5-9.7c2.6,0,4.7,0.9,6.3,2.3c2.2,2,3.3,5.2,3.2,9h-13.2c0.4,2.5,1.7,4,4.1,4
		c1.5,0,2.6-0.7,3.1-1.8h5.7c-0.4,1.7-1.5,3.2-3.1,4.4c-1.5,1.1-3.4,1.7-5.8,1.7C159.6,67.8,155.9,63.6,155.9,58z M168.9,56.1
		c-0.2-2.2-1.6-3.6-3.5-3.6c-2.2,0-3.4,1.4-3.8,3.6H168.9z"/>
	<path d="M53.4,104.2V92.1h5.8v10.9c0,2,0.9,3.1,2.8,3.1c2,0,3.2-1.5,3.2-3.7V92.1h5.9v18.4h-5.6v-2.3h-0.1c-1.3,1.8-3,2.8-5.5,2.8
		C55.6,111,53.4,108.3,53.4,104.2z"/>
	<path d="M73.9,92.1h5.6v2.2h0.1c1.3-1.7,3.1-2.8,5.6-2.8c4.9,0,7.9,4.2,7.9,9.8c0,6-3.2,9.8-8,9.8c-2.4,0-4.1-0.9-5.2-2.5h-0.1v8
		h-5.9V92.1z M87.2,101.5c0-3.2-1.2-5.3-3.7-5.3c-2.6,0-3.8,2.3-3.8,5.3c0,3,1.4,5,4,5C85.8,106.5,87.2,104.6,87.2,101.5z"/>
	<path d="M94.7,110.9h5.7c0.3,1,1.3,1.8,3.2,1.8c2.5,0,3.5-1.3,3.5-3.5v-1.8H107c-1.1,1.2-2.5,2.1-4.7,2.1c-4.1,0-8-3.1-8-8.7
		c0-5.4,3.2-9.2,7.7-9.2c2.4,0,4.1,1,5.2,2.5h0.1v-2h5.6v16.6c0,2.8-1,4.8-2.4,6.1c-1.6,1.4-4,2.1-6.8,2.1
		C98.6,116.9,95.2,114.8,94.7,110.9z M107.4,100.5c0-2.5-1.3-4.6-3.7-4.6c-2.2,0-3.6,1.8-3.6,4.6c0,2.8,1.4,4.6,3.6,4.6
		C106.2,105.1,107.4,103.1,107.4,100.5z"/>
	<path d="M115.7,92.1h5.6V95h0.1c1.3-2.2,2.8-3.2,5-3.2c0.5,0,0.9,0,1.2,0.1v5h-0.1c-3.6-0.5-5.9,1.3-5.9,5.3v8.3h-5.9V92.1z"/>
	<path d="M128.1,105.4c0-4.1,3.2-5.3,7.1-5.8c3.5-0.4,4.7-0.8,4.7-2.1c0-1.2-0.8-2-2.5-2c-1.9,0-2.8,0.8-3,2.4h-5.4
		c0.1-3.4,2.8-6.3,8.3-6.3c2.8,0,4.6,0.5,6,1.5c1.6,1.2,2.3,3,2.3,5.3v9.3c0,1.5,0.1,2.3,0.6,2.6v0.3h-5.7c-0.3-0.4-0.5-1.1-0.6-2.1
		h-0.1c-1.1,1.5-2.7,2.5-5.5,2.5C130.7,111,128.1,109,128.1,105.4z M139.9,103.9v-2.2c-0.8,0.4-1.8,0.7-3,1
		c-2.3,0.5-3.2,1.1-3.2,2.5c0,1.5,1.1,2.1,2.5,2.1C138.4,107.2,139.9,105.9,139.9,103.9z"/>
	<path d="M147.6,101.3c0-5.8,3.3-9.8,8.1-9.8c2.6,0,4.1,1.1,5.1,2.6h0.1v-9.4h5.9v25.7h-5.6V108h-0.1c-1.1,1.9-3,3.1-5.4,3.1
		C150.9,111.1,147.6,107.4,147.6,101.3z M161,101.3c0-3.1-1.3-5.3-3.8-5.3c-2.3,0-3.7,2.2-3.7,5.3c0,3.2,1.4,5.2,3.6,5.2
		C159.6,106.4,161,104.3,161,101.3z"/>
	<path d="M168.7,101.2c0-5.5,3.8-9.7,9.5-9.7c2.6,0,4.7,0.9,6.3,2.3c2.2,2,3.3,5.2,3.2,9h-13.2c0.4,2.5,1.7,4,4.1,4
		c1.5,0,2.6-0.7,3.1-1.8h5.7c-0.4,1.7-1.5,3.2-3.1,4.4c-1.5,1.1-3.4,1.7-5.8,1.7C172.5,111,168.7,106.8,168.7,101.2z M181.8,99.3
		c-0.2-2.2-1.6-3.6-3.5-3.6c-2.2,0-3.4,1.4-3.8,3.6H181.8z"/>
	<path d="M48.4,155.2h2c1.7,0,2.4-0.7,2.4-1.9c0-0.8-0.4-1.9-1.1-3.8l-5.4-14.2h6.2l2.5,7.8c0.6,1.8,1.2,4.2,1.2,4.2h0.1
		c0,0,0.5-2.4,1.1-4.2l2.4-7.8h5.9l-6.4,18.7c-1.5,4.3-3.2,5.8-6.9,5.8h-3.8V155.2z"/>
	<path d="M65.3,144.5c0-5.5,4-9.8,9.9-9.8c5.9,0,9.8,4.2,9.8,9.8s-3.9,9.8-9.8,9.8C69.3,154.3,65.3,150.1,65.3,144.5z M79.1,144.5
		c0-3.3-1.4-5.6-3.9-5.6s-3.9,2.3-3.9,5.6s1.3,5.6,3.9,5.6S79.1,147.9,79.1,144.5z"/>
	<path d="M86.8,147.4v-12.1h5.8v10.9c0,2,0.9,3.1,2.8,3.1c2,0,3.2-1.5,3.2-3.7v-10.3h5.9v18.4h-5.6v-2.3h-0.1
		c-1.3,1.8-3,2.8-5.5,2.8C89.1,154.2,86.8,151.5,86.8,147.4z"/>
	<path d="M107.4,135.3h5.6v2.9h0.1c1.3-2.2,2.8-3.2,5-3.2c0.5,0,0.9,0,1.2,0.1v5h-0.1c-3.6-0.5-5.9,1.3-5.9,5.3v8.3h-5.9V135.3z"/>
	<path d="M125.3,135.3h6l2,7.6c0.4,1.5,0.8,3.6,0.8,3.6h0.1c0,0,0.4-2.1,0.8-3.7l1.9-7.5h5l2,7.5c0.4,1.6,0.9,3.7,0.9,3.7h0.1
		c0,0,0.5-2.1,0.9-3.6l2.1-7.6h5.8l-5.6,18.4h-5.5l-2.2-8.3c-0.4-1.4-0.8-3.3-0.8-3.3h-0.1c0,0-0.4,1.9-0.8,3.3l-2.2,8.3h-5.4
		L125.3,135.3z"/>
	<path d="M153.4,144.4c0-5.5,3.8-9.7,9.5-9.7c2.6,0,4.7,0.9,6.3,2.3c2.2,2,3.3,5.2,3.2,9h-13.2c0.4,2.5,1.7,4,4.1,4
		c1.5,0,2.6-0.7,3.1-1.8h5.7c-0.4,1.7-1.5,3.2-3.1,4.4c-1.5,1.1-3.4,1.7-5.8,1.7C157.1,154.2,153.4,150,153.4,144.4z M166.4,142.5
		c-0.2-2.2-1.6-3.6-3.5-3.6c-2.2,0-3.4,1.4-3.8,3.6H166.4z"/>
	<path d="M180,151.4L180,151.4l-0.1,2.3h-5.6V128h5.9v9.4h0.1c1.2-1.6,2.7-2.6,5.3-2.6c4.8,0,7.9,4.2,7.9,9.8c0,6.1-3.1,9.8-7.8,9.8
		C183.2,154.3,181.2,153.3,180,151.4z M187.5,144.4c0-3.2-1.3-5.3-3.6-5.3c-2.6,0-3.8,2.3-3.8,5.3c0,3.1,1.5,5.1,3.9,5.1
		C186.3,149.6,187.5,147.7,187.5,144.4z"/>
	<path d="M59.9,194.6L59.9,194.6l-0.1,2.3h-5.6v-25.7H60v9.4h0.1c1.2-1.6,2.7-2.6,5.3-2.6c4.8,0,7.9,4.2,7.9,9.8
		c0,6.1-3.1,9.8-7.8,9.8C63,197.5,61,196.5,59.9,194.6z M67.3,187.6c0-3.2-1.3-5.3-3.6-5.3c-2.6,0-3.8,2.3-3.8,5.3
		c0,3.1,1.5,5.1,3.9,5.1C66.1,192.8,67.3,190.9,67.3,187.6z"/>
	<path d="M75.3,178.5h5.6v2.9H81c1.3-2.2,2.8-3.2,5-3.2c0.5,0,0.9,0,1.2,0.1v5H87c-3.6-0.5-5.9,1.3-5.9,5.3v8.3h-5.9V178.5z"/>
	<path d="M87.9,187.7c0-5.5,4-9.8,9.9-9.8c5.9,0,9.8,4.2,9.8,9.8c0,5.5-3.9,9.8-9.8,9.8C91.8,197.5,87.9,193.3,87.9,187.7z
		 M101.6,187.7c0-3.3-1.4-5.6-3.9-5.6c-2.6,0-3.9,2.3-3.9,5.6c0,3.3,1.3,5.6,3.9,5.6C100.2,193.3,101.6,191.1,101.6,187.7z"/>
	<path d="M107.3,178.5h6l2,7.6c0.4,1.5,0.8,3.6,0.8,3.6h0.1c0,0,0.4-2.1,0.8-3.7l1.9-7.5h5l2,7.5c0.4,1.6,0.9,3.7,0.9,3.7h0.1
		c0,0,0.5-2.1,0.9-3.6l2.1-7.6h5.8l-5.6,18.4h-5.5l-2.2-8.3c-0.4-1.4-0.8-3.3-0.8-3.3h-0.1c0,0-0.4,1.9-0.8,3.3l-2.2,8.3H113
		L107.3,178.5z"/>
	<path d="M135.7,190.9h5.5c0.2,1.8,1.4,2.7,3.4,2.7c1.8,0,2.9-0.6,2.9-1.8c0-1.7-2.2-1.8-4.7-2.3c-3.2-0.5-6.6-1.4-6.6-5.7
		c0-3.9,3.6-5.9,8-5.9c5.2,0,8,2.3,8.3,5.9h-5.4c-0.2-1.7-1.3-2.2-3-2.2c-1.4,0-2.6,0.5-2.6,1.7c0,1.3,2.1,1.5,4.4,1.9
		c3.2,0.5,7.1,1.4,7.1,6.1c0,4-3.6,6.1-8.4,6.1C139.3,197.5,135.9,195,135.7,190.9z"/>
	<path d="M154.3,187.6c0-5.5,3.8-9.7,9.5-9.7c2.6,0,4.7,0.9,6.3,2.3c2.2,2,3.3,5.2,3.2,9h-13.2c0.4,2.5,1.7,4,4.1,4
		c1.5,0,2.6-0.7,3.1-1.8h5.7c-0.4,1.7-1.5,3.2-3.1,4.4c-1.5,1.1-3.4,1.7-5.8,1.7C158.1,197.4,154.3,193.2,154.3,187.6z M167.4,185.7
		c-0.2-2.2-1.6-3.6-3.5-3.6c-2.2,0-3.4,1.4-3.8,3.6H167.4z"/>
	<path d="M175.3,178.5h5.6v2.9h0.1c1.3-2.2,2.8-3.2,5-3.2c0.5,0,0.9,0,1.2,0.1v5h-0.1c-3.6-0.5-5.9,1.3-5.9,5.3v8.3h-5.9V178.5z"/>
</g>
</svg>
