<?xml version="1.0" encoding="utf-8"?>
<!-- Generator: Adobe Illustrator 25.0.1, SVG Export Plug-In . SVG Version: 6.00 Build 0)  -->
<svg version="1.1" id="Layer_1" xmlns="http://www.w3.org/2000/svg" xmlns:xlink="http://www.w3.org/1999/xlink" x="0px" y="0px"
	 width="128px" height="128px" viewBox="0 0 128 128" style="enable-background:new 0 0 128 128;" xml:space="preserve">
<path d="M81.4,58.6c0.2,2.3,0.4,4.2,0.6,6.4c0.2,2.3,1.5,3.3,3.8,2c4.4-2.3,8.8-4.6,13.3-7.2c0.3-0.2,1.1-1.5,1-2.3
	c-1.5-4.2-3.3-8.5-4.9-12.3c-1-2.5-2.8-2.6-4.3-0.3c-2.9,3.8-5.6,7.5-8.5,11.5C81.8,56.9,81.8,57.8,81.4,58.6z M80.8,45.1
	c2.6-4.2,4.8-7.7,7.2-11.3c0.3-0.5,1-1.5,1.3-2.1c2.5-3.3,4.8-3.4,6.9,0c4.1,7.1,7.9,14.4,11.1,21.9c4.6,11.3,8.7,22.5,12.9,34.1
	c1.2,2.9-1.5,6.9-4.8,7.5c-3.1,0.5-6.9-1.8-7.4-5.4c-0.3-4.1-0.5-7.9-1.3-11.8c-1.8-8.7-4.1-9.8-10.3-3.9
	c-6.2,5.6-11.8,11.9-10,21.6c0.6,3.5-1.8,6.4-4.6,6.7c-3.3,0-4.9-2.3-5.4-6.2c0-4.2-0.2-8.5-0.2-12.9c0-3.1-1.5-3.1-4.1-2.6
	c-3.4,0.5-7.2,1.2-10.6,1.5c-2.5,0.2-5-0.4-5.6-2.9c-0.2-1.8,1-4.2,2-5.7c2.5-3.1,5-5.9,7.7-8.8c5.1-5.4,6.9-11.1,4.4-18
	c-1-2.6,0.2-4.6,2.3-6.2c2.9-2.3,4.8-1.8,6.7,1.3C79.5,42.4,79.8,43.4,80.8,45.1z M30.8,37.4c-6.7-0.6-9,1.3-9,7.9c0,5,0.5,10,1,15
	c0.2,3.3,1.8,4.6,4.8,4.4c6.2-0.3,11.9-2,16.7-6.2s4.9-11.1,0.2-15.2C41.3,40.7,36.6,38,30.8,37.4z M50,69.7
	c-9.8,4.8-11.1,3.9-16.5,5.6c-0.5,0.2-1.3,0.2-2,0.3c-7.1,1.2-7.3,1.2-6.7,8.5c0.2,3.1,1.2,5.9,1.3,9c0.3,3.8-1.3,6.9-4.2,7.5
	c-3.4,0.5-7.2-1.3-7.9-5C11.7,87,9.4,78.2,7.9,69.3c-1-4.6,0.2-9.8,0.3-14.6c0.6-6.4,1.2-12.1,1.5-17.7c0-1.3,1-2.9,1.8-3.4
	c3.3-2.1,7.1-4.2,10.6-6.2c11.8-5.9,32.3,2.9,35.8,17.3c0.4,2.3,3.1,9.5,3.1,11.9c0,2.5-0.5,5-2.3,6.7C57,65.3,54.1,67.6,50,69.7z"
	/>
</svg>
